<mxfile host="app.diagrams.net" modified="2023-06-16T16:36:54.129Z" agent="Mozilla/5.0 (Macintosh; Intel Mac OS X 10_15_7) AppleWebKit/537.36 (KHTML, like Gecko) Chrome/114.0.0.0 Safari/537.36" version="21.4.0" etag="SkiFTLEZs418VorSQhWK" type="github">
  <diagram name="페이지-1" id="zIHswPSdkHcmSwXnek7s">
    <mxGraphModel>
      <root>
        <mxCell id="0" />
        <mxCell id="1" parent="0" />
      </root>
    </mxGraphModel>
  </diagram>
</mxfile>
